# xmcd
#
# Track frame offsets: 
#        150
#        24490
#        41538
#        61832
#        76224
#        100615
#        122705
#        144098
#        161151
#        186456
#        206721
#
# Disc length: 3250 seconds
#
# Revision: 0
# Processed by: cddbd v1.5.2PL0 Copyright (c) Steve Scherf et al.
# Submitted via: ExactAudioCopy v0.95b4
#
DISCID=8d0cb00b
DTITLE=Liv Warfield - Embrace Me
DYEAR=2006
DGENRE=R&B
TTITLE0=ABC's
TTITLE1=Embrace Me
TTITLE2=Sophisticated Sista
TTITLE3=I Decided
TTITLE4=Groove DJ
TTITLE5=Waiting
TTITLE6=Work for Me
TTITLE7=Get Away
TTITLE8=Feeling Lonely
TTITLE9=Time
TTITLE10=Brotha Man-Live
EXTD=
EXTT0=
EXTT1=
EXTT2=
EXTT3=
EXTT4=
EXTT5=
EXTT6=
EXTT7=
EXTT8=
EXTT9=
EXTT10=
PLAYORDER=
